<svg xmlns="http://www.w3.org/2000/svg" width="160" height="160" viewBox="0 0 160 160"><rect width="100%" height="100%" fill="#fbfbfa"/><circle cx="150.9" cy="85.4" r="4.6" fill="#4e79a7"/><circle cx="115.5" cy="84.6" r="4.6" fill="#f28e2b"/><circle cx="147.8" cy="47.2" r="4.6" fill="#b07aa1"/><circle cx="85.1" cy="61.0" r="4.6" fill="#f28e2b"/><circle cx="146.2" cy="108.2" r="4.6" fill="#b07aa1"/><circle cx="101.2" cy="122.8" r="4.6" fill="#4e79a7"/><circle cx="125.5" cy="38.7" r="4.6" fill="#4e79a7"/><circle cx="61.3" cy="114.2" r="4.6" fill="#59a14f"/><circle cx="147.1" cy="62.5" r="4.6" fill="#4e79a7"/><circle cx="92.5" cy="107.3" r="4.6" fill="#f28e2b"/><circle cx="98.6" cy="53.5" r="4.6" fill="#f28e2b"/><circle cx="54.5" cy="52.6" r="4.6" fill="#59a14f"/><circle cx="127.9" cy="123.4" r="4.6" fill="#4e79a7"/><circle cx="70.1" cy="114.5" r="4.6" fill="#59a14f"/><circle cx="90.1" cy="37.9" r="4.6" fill="#59a14f"/><circle cx="49.1" cy="75.5" r="4.6" fill="#59a14f"/><circle cx="146.6" cy="77.6" r="4.6" fill="#4e79a7"/><circle cx="107.0" cy="69.1" r="4.6" fill="#f28e2b"/><circle cx="111.7" cy="61.5" r="4.6" fill="#59a14f"/><circle cx="62.7" cy="68.3" r="4.6" fill="#f28e2b"/><circle cx="141.7" cy="100.6" r="4.6" fill="#4e79a7"/><circle cx="87.7" cy="130.3" r="4.6" fill="#4e79a7"/><circle cx="108.2" cy="23.1" r="4.6" fill="#4e79a7"/><circle cx="39.3" cy="106.0" r="4.6" fill="#e15759"/><circle cx="124.7" cy="69.5" r="4.6" fill="#59a14f"/><circle cx="79.5" cy="99.3" r="4.6" fill="#f28e2b"/><circle cx="67.9" cy="45.2" r="4.6" fill="#59a14f"/><circle cx="31.6" cy="59.7" r="4.6" fill="#4e79a7"/><circle cx="110.4" cy="107.5" r="4.6" fill="#59a14f"/><circle cx="60.9" cy="129.7" r="4.6" fill="#4e79a7"/><circle cx="54.8" cy="37.3" r="4.6" fill="#4e79a7"/><circle cx="35.5" cy="82.9" r="4.6" fill="#76b7b2"/><circle cx="142.4" cy="69.9" r="4.6" fill="#4e79a7"/><circle cx="97.7" cy="84.2" r="4.6" fill="#f28e2b"/><circle cx="134.3" cy="38.9" r="4.6" fill="#4e79a7"/><circle cx="75.8" cy="76.2" r="4.6" fill="#f28e2b"/><circle cx="128.3" cy="108.1" r="4.6" fill="#4e79a7"/><circle cx="83.7" cy="107.0" r="4.6" fill="#f28e2b"/><circle cx="107.8" cy="38.4" r="4.6" fill="#4e79a7"/><circle cx="43.9" cy="98.4" r="4.6" fill="#59a14f"/><circle cx="138.2" cy="62.1" r="4.6" fill="#4e79a7"/><circle cx="84.1" cy="91.7" r="4.6" fill="#f28e2b"/><circle cx="76.7" cy="45.4" r="4.6" fill="#59a14f"/><circle cx="40.1" cy="75.3" r="4.6" fill="#59a14f"/><circle cx="105.5" cy="130.6" r="4.6" fill="#4e79a7"/><circle cx="56.7" cy="121.8" r="4.6" fill="#4e79a7"/><circle cx="77.0" cy="30.0" r="4.6" fill="#4e79a7"/><circle cx="30.8" cy="90.5" r="4.6" fill="#4e79a7"/><circle cx="133.2" cy="85.1" r="4.6" fill="#e15759"/><circle cx="84.6" cy="76.3" r="4.6" fill="#f28e2b"/><circle cx="112.1" cy="46.2" r="4.6" fill="#59a14f"/><circle cx="58.0" cy="75.8" r="4.6" fill="#f28e2b"/><circle cx="123.9" cy="100.2" r="4.6" fill="#76b7b2"/><circle cx="74.1" cy="137.6" r="4.6" fill="#4e79a7"/><circle cx="81.5" cy="22.3" r="4.6" fill="#4e79a7"/><circle cx="25.8" cy="113.6" r="4.6" fill="#4e79a7"/><circle cx="102.4" cy="76.7" r="4.6" fill="#f28e2b"/><circle cx="66.9" cy="76.0" r="4.6" fill="#f28e2b"/><circle cx="72.4" cy="37.6" r="4.6" fill="#e15759"/><circle cx="22.7" cy="59.7" r="4.6" fill="#4e79a7"/><circle cx="101.5" cy="107.4" r="4.6" fill="#59a14f"/><circle cx="43.5" cy="113.8" r="4.6" fill="#4e79a7"/><circle cx="50.2" cy="44.8" r="4.6" fill="#4e79a7"/><circle cx="22.4" cy="74.9" r="4.6" fill="#4e79a7"/><circle cx="146.3" cy="93.0" r="4.6" fill="#4e79a7"/><circle cx="110.7" cy="92.2" r="4.6" fill="#f28e2b"/><circle cx="129.8" cy="46.5" r="4.6" fill="#4e79a7"/><circle cx="76.3" cy="60.8" r="4.6" fill="#f28e2b"/><circle cx="123.6" cy="115.6" r="4.6" fill="#4e79a7"/><circle cx="79.1" cy="114.6" r="4.6" fill="#59a14f"/><circle cx="112.4" cy="30.8" r="4.6" fill="#4e79a7"/><circle cx="57.0" cy="106.4" r="4.6" fill="#59a14f"/><circle cx="134.1" cy="54.2" r="4.6" fill="#4e79a7"/><circle cx="88.4" cy="99.4" r="4.6" fill="#f28e2b"/><circle cx="89.7" cy="53.4" r="4.6" fill="#f28e2b"/><circle cx="35.9" cy="67.6" r="4.6" fill="#4e79a7"/><circle cx="114.4" cy="130.7" r="4.6" fill="#4e79a7"/><circle cx="65.5" cy="122.1" r="4.6" fill="#e15759"/><circle cx="85.9" cy="30.0" r="4.6" fill="#4e79a7"/><circle cx="39.7" cy="90.6" r="4.6" fill="#59a14f"/><circle cx="120.1" cy="77.1" r="4.6" fill="#59a14f"/><circle cx="94.0" cy="61.2" r="4.6" fill="#f28e2b"/><circle cx="115.9" cy="69.3" r="4.6" fill="#f28e2b"/><circle cx="49.8" cy="60.2" r="4.6" fill="#59a14f"/><circle cx="128.6" cy="92.6" r="4.6" fill="#76b7b2"/><circle cx="83.1" cy="137.8" r="4.6" fill="#4e79a7"/><circle cx="90.4" cy="22.3" r="4.6" fill="#4e79a7"/><circle cx="34.7" cy="113.7" r="4.6" fill="#4e79a7"/><circle cx="111.2" cy="76.9" r="4.6" fill="#f28e2b"/><circle cx="61.7" cy="98.8" r="4.6" fill="#f28e2b"/><circle cx="58.6" cy="60.5" r="4.6" fill="#59a14f"/><circle cx="18.3" cy="52.0" r="4.6" fill="#b07aa1"/><circle cx="110.1" cy="123.0" r="4.6" fill="#4e79a7"/><circle cx="43.3" cy="129.2" r="4.6" fill="#4e79a7"/><circle cx="55.0" cy="21.9" r="4.6" fill="#b07aa1"/><circle cx="18.1" cy="67.1" r="4.6" fill="#4e79a7"/><circle cx="129.0" cy="77.2" r="4.6" fill="#59a14f"/><circle cx="93.0" cy="91.8" r="4.6" fill="#f28e2b"/><circle cx="116.7" cy="38.6" r="4.6" fill="#4e79a7"/><circle cx="71.6" cy="68.5" r="4.6" fill="#f28e2b"/><circle cx="114.7" cy="115.3" r="4.6" fill="#4e79a7"/><circle cx="69.8" cy="129.8" r="4.6" fill="#4e79a7"/><circle cx="94.7" cy="30.2" r="4.6" fill="#4e79a7"/><circle cx="26.2" cy="98.1" r="4.6" fill="#4e79a7"/><circle cx="125.2" cy="54.1" r="4.6" fill="#e15759"/><circle cx="66.4" cy="91.3" r="4.6" fill="#f28e2b"/><circle cx="81.3" cy="37.7" r="4.6" fill="#59a14f"/><circle cx="27.1" cy="67.4" r="4.6" fill="#4e79a7"/><circle cx="92.0" cy="138.1" r="4.6" fill="#4e79a7"/><circle cx="48.1" cy="106.2" r="4.6" fill="#59a14f"/><circle cx="59.3" cy="29.7" r="4.6" fill="#4e79a7"/><circle cx="13.0" cy="90.0" r="4.6" fill="#b07aa1"/><circle cx="119.7" cy="92.4" r="4.6" fill="#59a14f"/><circle cx="80.5" cy="68.6" r="4.6" fill="#f28e2b"/><circle cx="102.8" cy="61.3" r="4.6" fill="#f28e2b"/><circle cx="48.6" cy="90.8" r="4.6" fill="#59a14f"/><circle cx="106.1" cy="99.8" r="4.6" fill="#f28e2b"/><circle cx="65.2" cy="137.4" r="4.6" fill="#4e79a7"/><circle cx="63.8" cy="22.1" r="4.6" fill="#4e79a7"/><circle cx="17.3" cy="97.9" r="4.6" fill="#4e79a7"/><circle cx="89.3" cy="68.7" r="4.6" fill="#f28e2b"/><circle cx="57.5" cy="91.1" r="4.6" fill="#f28e2b"/><circle cx="59.1" cy="45.1" r="4.6" fill="#e15759"/><circle cx="9.1" cy="66.9" r="4.6" fill="#b07aa1"/><circle cx="97.2" cy="99.6" r="4.6" fill="#f28e2b"/><circle cx="34.5" cy="129.3" r="4.6" fill="#b07aa1"/><circle cx="37.0" cy="37.2" r="4.6" fill="#4e79a7"/><circle cx="13.6" cy="74.6" r="4.6" fill="#4e79a7"/><circle cx="142.0" cy="85.2" r="4.6" fill="#4e79a7"/><circle cx="106.5" cy="84.5" r="4.6" fill="#f28e2b"/><circle cx="138.8" cy="46.7" r="4.6" fill="#4e79a7"/><circle cx="80.9" cy="53.2" r="4.6" fill="#f28e2b"/><circle cx="137.2" cy="108.2" r="4.6" fill="#4e79a7"/><circle cx="92.3" cy="122.7" r="4.6" fill="#76b7b2"/><circle cx="121.3" cy="30.9" r="4.6" fill="#4e79a7"/><circle cx="52.4" cy="114.0" r="4.6" fill="#59a14f"/><circle cx="142.9" cy="54.6" r="4.6" fill="#4e79a7"/><circle cx="87.9" cy="114.9" r="4.6" fill="#59a14f"/><circle cx="94.3" cy="45.7" r="4.6" fill="#59a14f"/><circle cx="45.7" cy="52.5" r="4.6" fill="#4e79a7"/><circle cx="123.3" cy="131.0" r="4.6" fill="#b07aa1"/><circle cx="65.9" cy="106.7" r="4.6" fill="#f28e2b"/><circle cx="85.5" cy="45.6" r="4.6" fill="#59a14f"/><circle cx="44.4" cy="83.1" r="4.6" fill="#59a14f"/><circle cx="137.8" cy="77.5" r="4.6" fill="#4e79a7"/><circle cx="98.2" cy="68.9" r="4.6" fill="#f28e2b"/><circle cx="107.5" cy="53.7" r="4.6" fill="#59a14f"/><circle cx="53.9" cy="68.0" r="4.6" fill="#59a14f"/><circle cx="132.8" cy="100.5" r="4.6" fill="#4e79a7"/><circle cx="83.3" cy="122.5" r="4.6" fill="#59a14f"/><circle cx="99.3" cy="22.7" r="4.6" fill="#4e79a7"/><circle cx="30.4" cy="105.9" r="4.6" fill="#4e79a7"/><circle cx="120.5" cy="61.7" r="4.6" fill="#59a14f"/><circle cx="70.6" cy="99.1" r="4.6" fill="#f28e2b"/><circle cx="63.3" cy="52.9" r="4.6" fill="#59a14f"/><circle cx="41.4" cy="44.8" r="4.6" fill="#4e79a7"/><circle cx="105.8" cy="115.2" r="4.6" fill="#59a14f"/><circle cx="52.1" cy="129.3" r="4.6" fill="#4e79a7"/><circle cx="50.5" cy="29.6" r="4.6" fill="#4e79a7"/><circle cx="26.6" cy="82.7" r="4.6" fill="#4e79a7"/><circle cx="133.6" cy="69.6" r="4.6" fill="#4e79a7"/><circle cx="88.8" cy="84.0" r="4.6" fill="#f28e2b"/><circle cx="121.0" cy="46.4" r="4.6" fill="#4e79a7"/><circle cx="71.1" cy="83.8" r="4.6" fill="#f28e2b"/><circle cx="119.4" cy="107.8" r="4.6" fill="#e15759"/><circle cx="74.8" cy="106.9" r="4.6" fill="#f28e2b"/><circle cx="98.9" cy="38.1" r="4.6" fill="#e15759"/><circle cx="35.0" cy="98.3" r="4.6" fill="#4e79a7"/><circle cx="129.4" cy="61.9" r="4.6" fill="#e15759"/><circle cx="75.2" cy="91.6" r="4.6" fill="#f28e2b"/><circle cx="72.1" cy="53.0" r="4.6" fill="#f28e2b"/><circle cx="31.2" cy="75.2" r="4.6" fill="#4e79a7"/><circle cx="96.6" cy="130.5" r="4.6" fill="#4e79a7"/><circle cx="47.8" cy="121.6" r="4.6" fill="#4e79a7"/><circle cx="68.1" cy="29.9" r="4.6" fill="#4e79a7"/><circle cx="21.9" cy="90.3" r="4.6" fill="#4e79a7"/><circle cx="124.4" cy="84.8" r="4.6" fill="#59a14f"/><circle cx="79.9" cy="84.0" r="4.6" fill="#f28e2b"/><circle cx="103.2" cy="45.9" r="4.6" fill="#59a14f"/><circle cx="53.3" cy="83.3" r="4.6" fill="#f28e2b"/><circle cx="115.0" cy="100.0" r="4.6" fill="#59a14f"/><circle cx="78.7" cy="130.1" r="4.6" fill="#4e79a7"/><circle cx="72.7" cy="22.3" r="4.6" fill="#4e79a7"/><circle cx="21.6" cy="105.7" r="4.6" fill="#4e79a7"/><circle cx="93.5" cy="76.5" r="4.6" fill="#f28e2b"/><circle cx="62.2" cy="83.5" r="4.6" fill="#f28e2b"/><circle cx="63.6" cy="37.5" r="4.6" fill="#4e79a7"/><circle cx="13.8" cy="59.5" r="4.6" fill="#b07aa1"/><circle cx="96.9" cy="115.0" r="4.6" fill="#59a14f"/><circle cx="39.0" cy="121.5" r="4.6" fill="#4e79a7"/><circle cx="45.8" cy="37.1" r="4.6" fill="#4e79a7"/><circle cx="17.7" cy="82.4" r="4.6" fill="#4e79a7"/><circle cx="137.4" cy="92.9" r="4.6" fill="#4e79a7"/><circle cx="101.8" cy="92.0" r="4.6" fill="#f28e2b"/><circle cx="116.3" cy="54.0" r="4.6" fill="#59a14f"/><circle cx="67.5" cy="60.7" r="4.6" fill="#f28e2b"/><circle cx="119.0" cy="123.2" r="4.6" fill="#4e79a7"/><circle cx="74.4" cy="122.2" r="4.6" fill="#59a14f"/><circle cx="103.6" cy="30.6" r="4.6" fill="#4e79a7"/><circle cx="52.8" cy="98.6" r="4.6" fill="#59a14f"/></svg>