<svg xmlns="http://www.w3.org/2000/svg" width="160" height="160" viewBox="0 0 160 160"><rect width="100%" height="100%" fill="#fbfbfa"/><circle cx="149.0" cy="82.2" r="4.9" fill="#59a14f"/><circle cx="137.4" cy="110.9" r="4.9" fill="#b07aa1"/><circle cx="136.9" cy="43.0" r="4.9" fill="#59a14f"/><circle cx="86.4" cy="116.1" r="4.9" fill="#4e79a7"/><circle cx="143.7" cy="58.0" r="4.9" fill="#59a14f"/><circle cx="99.8" cy="85.4" r="4.9" fill="#f28e2b"/><circle cx="88.0" cy="56.2" r="4.9" fill="#f28e2b"/><circle cx="68.6" cy="122.3" r="4.9" fill="#4e79a7"/><circle cx="142.8" cy="67.4" r="4.9" fill="#b07aa1"/><circle cx="114.4" cy="140.1" r="4.9" fill="#59a14f"/><circle cx="97.8" cy="24.8" r="4.9" fill="#e15759"/><circle cx="45.5" cy="68.5" r="4.9" fill="#4e79a7"/><circle cx="95.1" cy="61.7" r="4.9" fill="#f28e2b"/><circle cx="74.0" cy="137.4" r="4.9" fill="#e15759"/><circle cx="73.3" cy="19.4" r="4.9" fill="#e15759"/><circle cx="49.9" cy="95.8" r="4.9" fill="#4e79a7"/><circle cx="143.3" cy="103.6" r="4.9" fill="#59a14f"/><circle cx="119.5" cy="112.4" r="4.9" fill="#4e79a7"/><circle cx="114.1" cy="26.4" r="4.9" fill="#b07aa1"/><circle cx="57.7" cy="79.4" r="4.9" fill="#f28e2b"/><circle cx="112.0" cy="54.4" r="4.9" fill="#4e79a7"/><circle cx="112.6" cy="106.3" r="4.9" fill="#4e79a7"/><circle cx="69.2" cy="65.0" r="4.9" fill="#f28e2b"/><circle cx="43.3" cy="110.6" r="4.9" fill="#4e79a7"/><circle cx="117.0" cy="78.5" r="4.9" fill="#4e79a7"/><circle cx="89.8" cy="140.5" r="4.9" fill="#e15759"/><circle cx="89.7" cy="19.8" r="4.9" fill="#e15759"/><circle cx="27.2" cy="66.3" r="4.9" fill="#4e79a7"/><circle cx="81.2" cy="101.0" r="4.9" fill="#f28e2b"/><circle cx="48.8" cy="137.5" r="4.9" fill="#b07aa1"/><circle cx="73.3" cy="28.5" r="4.9" fill="#4e79a7"/><circle cx="42.2" cy="101.3" r="4.9" fill="#4e79a7"/><circle cx="140.4" cy="85.9" r="4.9" fill="#e15759"/><circle cx="124.9" cy="127.6" r="4.9" fill="#b07aa1"/><circle cx="121.0" cy="41.4" r="4.9" fill="#4e79a7"/><circle cx="74.2" cy="95.1" r="4.9" fill="#f28e2b"/><circle cx="135.3" cy="61.8" r="4.9" fill="#4e79a7"/><circle cx="96.8" cy="103.7" r="4.9" fill="#f28e2b"/><circle cx="72.9" cy="38.0" r="4.9" fill="#4e79a7"/><circle cx="63.9" cy="107.1" r="4.9" fill="#4e79a7"/><circle cx="125.6" cy="74.9" r="4.9" fill="#4e79a7"/><circle cx="102.1" cy="118.8" r="4.9" fill="#4e79a7"/><circle cx="96.8" cy="43.3" r="4.9" fill="#4e79a7"/><circle cx="44.5" cy="44.1" r="4.9" fill="#4e79a7"/><circle cx="85.1" cy="73.9" r="4.9" fill="#76b7b2"/><circle cx="66.9" cy="131.3" r="4.9" fill="#4e79a7"/><circle cx="56.8" cy="29.5" r="4.9" fill="#e15759"/><circle cx="39.6" cy="75.3" r="4.9" fill="#4e79a7"/><circle cx="139.4" cy="95.0" r="4.9" fill="#e15759"/><circle cx="114.3" cy="97.0" r="4.9" fill="#4e79a7"/><circle cx="106.2" cy="20.8" r="4.9" fill="#b07aa1"/><circle cx="63.4" cy="72.0" r="4.9" fill="#f28e2b"/><circle cx="104.4" cy="48.7" r="4.9" fill="#4e79a7"/><circle cx="93.3" cy="122.0" r="4.9" fill="#4e79a7"/><circle cx="53.6" cy="45.8" r="4.9" fill="#4e79a7"/><circle cx="27.7" cy="112.2" r="4.9" fill="#e15759"/><circle cx="109.6" cy="72.8" r="4.9" fill="#f28e2b"/><circle cx="81.0" cy="143.5" r="4.9" fill="#b07aa1"/><circle cx="81.6" cy="14.9" r="4.9" fill="#b07aa1"/><circle cx="21.6" cy="73.9" r="4.9" fill="#e15759"/><circle cx="76.4" cy="77.0" r="4.9" fill="#f28e2b"/><circle cx="36.0" cy="116.1" r="4.9" fill="#4e79a7"/><circle cx="50.4" cy="36.9" r="4.9" fill="#4e79a7"/><circle cx="18.3" cy="98.8" r="4.9" fill="#b07aa1"/><circle cx="150.1" cy="73.0" r="4.9" fill="#59a14f"/><circle cx="126.6" cy="118.5" r="4.9" fill="#e15759"/><circle cx="129.3" cy="37.6" r="4.9" fill="#b07aa1"/><circle cx="79.4" cy="110.2" r="4.9" fill="#f28e2b"/><circle cx="127.9" cy="56.3" r="4.9" fill="#4e79a7"/><circle cx="91.1" cy="88.7" r="4.9" fill="#f28e2b"/><circle cx="72.3" cy="47.5" r="4.9" fill="#4e79a7"/><circle cx="59.9" cy="125.2" r="4.9" fill="#4e79a7"/><circle cx="133.0" cy="80.4" r="4.9" fill="#4e79a7"/><circle cx="98.5" cy="137.2" r="4.9" fill="#e15759"/><circle cx="89.0" cy="38.1" r="4.9" fill="#4e79a7"/><circle cx="32.9" cy="58.6" r="4.9" fill="#4e79a7"/><circle cx="77.9" cy="67.9" r="4.9" fill="#f28e2b"/><circle cx="46.5" cy="128.6" r="4.9" fill="#e15759"/><circle cx="56.9" cy="20.0" r="4.9" fill="#59a14f"/><circle cx="33.3" cy="87.6" r="4.9" fill="#4e79a7"/><circle cx="121.3" cy="103.0" r="4.9" fill="#4e79a7"/><circle cx="109.1" cy="124.9" r="4.9" fill="#4e79a7"/><circle cx="105.7" cy="30.1" r="4.9" fill="#4e79a7"/><circle cx="42.0" cy="83.7" r="4.9" fill="#4e79a7"/><circle cx="102.4" cy="67.2" r="4.9" fill="#f28e2b"/><circle cx="95.1" cy="112.9" r="4.9" fill="#4e79a7"/><circle cx="51.4" cy="61.5" r="4.9" fill="#4e79a7"/><circle cx="26.7" cy="102.6" r="4.9" fill="#e15759"/><circle cx="107.0" cy="91.2" r="4.9" fill="#f28e2b"/><circle cx="82.8" cy="134.4" r="4.9" fill="#4e79a7"/><circle cx="81.1" cy="33.3" r="4.9" fill="#4e79a7"/><circle cx="23.8" cy="57.5" r="4.9" fill="#b07aa1"/><circle cx="75.2" cy="85.9" r="4.9" fill="#f28e2b"/><circle cx="37.6" cy="125.3" r="4.9" fill="#e15759"/><circle cx="59.1" cy="38.7" r="4.9" fill="#4e79a7"/><circle cx="25.8" cy="92.9" r="4.9" fill="#4e79a7"/><circle cx="124.3" cy="84.1" r="4.9" fill="#4e79a7"/><circle cx="107.4" cy="134.1" r="4.9" fill="#e15759"/><circle cx="105.1" cy="39.4" r="4.9" fill="#4e79a7"/><circle cx="58.4" cy="91.8" r="4.9" fill="#f28e2b"/><circle cx="119.4" cy="60.0" r="4.9" fill="#4e79a7"/><circle cx="88.1" cy="106.9" r="4.9" fill="#f28e2b"/><circle cx="57.3" cy="54.4" r="4.9" fill="#4e79a7"/><circle cx="50.2" cy="105.1" r="4.9" fill="#4e79a7"/><circle cx="110.9" cy="63.7" r="4.9" fill="#4e79a7"/><circle cx="91.6" cy="131.2" r="4.9" fill="#4e79a7"/><circle cx="80.7" cy="42.5" r="4.9" fill="#4e79a7"/><circle cx="29.5" cy="50.0" r="4.9" fill="#b07aa1"/><circle cx="75.7" cy="58.8" r="4.9" fill="#f28e2b"/><circle cx="44.8" cy="119.6" r="4.9" fill="#4e79a7"/><circle cx="38.2" cy="26.6" r="4.9" fill="#59a14f"/><circle cx="24.7" cy="83.2" r="4.9" fill="#4e79a7"/><circle cx="115.7" cy="87.8" r="4.9" fill="#4e79a7"/><circle cx="98.4" cy="94.5" r="4.9" fill="#f28e2b"/><circle cx="90.0" cy="10.6" r="4.9" fill="#59a14f"/><circle cx="48.6" cy="77.4" r="4.9" fill="#4e79a7"/><circle cx="97.3" cy="34.1" r="4.9" fill="#4e79a7"/><circle cx="75.7" cy="128.3" r="4.9" fill="#4e79a7"/><circle cx="42.1" cy="60.0" r="4.9" fill="#4e79a7"/><circle cx="19.4" cy="108.2" r="4.9" fill="#59a14f"/><circle cx="93.7" cy="70.7" r="4.9" fill="#f28e2b"/><circle cx="56.2" cy="143.3" r="4.9" fill="#59a14f"/><circle cx="65.0" cy="14.8" r="4.9" fill="#59a14f"/><circle cx="15.6" cy="80.7" r="4.9" fill="#b07aa1"/><circle cx="67.0" cy="89.2" r="4.9" fill="#f28e2b"/><circle cx="30.6" cy="131.1" r="4.9" fill="#59a14f"/><circle cx="35.4" cy="42.8" r="4.9" fill="#b07aa1"/><circle cx="17.4" cy="89.5" r="4.9" fill="#b07aa1"/><circle cx="148.0" cy="91.4" r="4.9" fill="#59a14f"/><circle cx="128.2" cy="109.4" r="4.9" fill="#e15759"/><circle cx="128.6" cy="46.9" r="4.9" fill="#e15759"/><circle cx="77.5" cy="119.3" r="4.9" fill="#4e79a7"/><circle cx="136.2" cy="52.3" r="4.9" fill="#e15759"/><circle cx="92.4" cy="79.7" r="4.9" fill="#76b7b2"/><circle cx="80.5" cy="51.3" r="4.9" fill="#f28e2b"/><circle cx="61.5" cy="116.1" r="4.9" fill="#4e79a7"/><circle cx="134.2" cy="71.1" r="4.9" fill="#4e79a7"/><circle cx="105.6" cy="143.2" r="4.9" fill="#59a14f"/><circle cx="89.4" cy="29.0" r="4.9" fill="#4e79a7"/><circle cx="36.2" cy="67.2" r="4.9" fill="#4e79a7"/><circle cx="86.5" cy="65.0" r="4.9" fill="#f28e2b"/><circle cx="65.0" cy="140.3" r="4.9" fill="#b07aa1"/><circle cx="65.1" cy="23.9" r="4.9" fill="#e15759"/><circle cx="41.6" cy="92.3" r="4.9" fill="#4e79a7"/><circle cx="134.0" cy="102.4" r="4.9" fill="#e15759"/><circle cx="110.8" cy="115.6" r="4.9" fill="#4e79a7"/><circle cx="113.4" cy="35.8" r="4.9" fill="#4e79a7"/><circle cx="50.9" cy="86.4" r="4.9" fill="#4e79a7"/><circle cx="103.6" cy="58.0" r="4.9" fill="#f28e2b"/><circle cx="103.9" cy="109.6" r="4.9" fill="#4e79a7"/><circle cx="60.5" cy="63.0" r="4.9" fill="#f28e2b"/><circle cx="34.9" cy="106.7" r="4.9" fill="#4e79a7"/><circle cx="108.4" cy="82.0" r="4.9" fill="#f28e2b"/><circle cx="88.0" cy="149.7" r="4.9" fill="#59a14f"/><circle cx="81.4" cy="24.1" r="4.9" fill="#4e79a7"/><circle cx="18.3" cy="65.0" r="4.9" fill="#b07aa1"/><circle cx="72.6" cy="104.3" r="4.9" fill="#f28e2b"/><circle cx="39.5" cy="134.6" r="4.9" fill="#59a14f"/><circle cx="65.5" cy="32.8" r="4.9" fill="#4e79a7"/><circle cx="33.9" cy="97.1" r="4.9" fill="#4e79a7"/><circle cx="131.7" cy="89.6" r="4.9" fill="#4e79a7"/><circle cx="116.2" cy="130.9" r="4.9" fill="#b07aa1"/><circle cx="112.7" cy="45.1" r="4.9" fill="#4e79a7"/><circle cx="65.8" cy="98.1" r="4.9" fill="#f28e2b"/><circle cx="126.8" cy="65.6" r="4.9" fill="#4e79a7"/><circle cx="89.7" cy="97.8" r="4.9" fill="#f28e2b"/><circle cx="63.0" cy="47.1" r="4.9" fill="#4e79a7"/><circle cx="57.5" cy="100.8" r="4.9" fill="#4e79a7"/><circle cx="118.3" cy="69.3" r="4.9" fill="#4e79a7"/><circle cx="100.4" cy="128.0" r="4.9" fill="#4e79a7"/><circle cx="88.6" cy="47.1" r="4.9" fill="#4e79a7"/><circle cx="38.7" cy="51.4" r="4.9" fill="#4e79a7"/><circle cx="83.8" cy="82.8" r="4.9" fill="#76b7b2"/><circle cx="57.8" cy="134.2" r="4.9" fill="#e15759"/><circle cx="47.4" cy="28.3" r="4.9" fill="#b07aa1"/><circle cx="30.6" cy="75.1" r="4.9" fill="#4e79a7"/><circle cx="123.0" cy="93.5" r="4.9" fill="#4e79a7"/><circle cx="105.5" cy="100.4" r="4.9" fill="#4e79a7"/><circle cx="98.1" cy="15.7" r="4.9" fill="#59a14f"/><circle cx="54.5" cy="70.3" r="4.9" fill="#f28e2b"/><circle cx="96.2" cy="52.5" r="4.9" fill="#4e79a7"/><circle cx="84.6" cy="125.2" r="4.9" fill="#4e79a7"/><circle cx="48.0" cy="52.9" r="4.9" fill="#4e79a7"/><circle cx="20.3" cy="117.5" r="4.9" fill="#59a14f"/><circle cx="101.0" cy="76.3" r="4.9" fill="#f28e2b"/><circle cx="72.1" cy="146.4" r="4.9" fill="#59a14f"/><circle cx="73.3" cy="10.3" r="4.9" fill="#59a14f"/><circle cx="12.4" cy="72.1" r="4.9" fill="#59a14f"/><circle cx="67.5" cy="80.2" r="4.9" fill="#f28e2b"/><circle cx="28.8" cy="121.8" r="4.9" fill="#b07aa1"/><circle cx="41.2" cy="35.4" r="4.9" fill="#b07aa1"/><circle cx="9.9" cy="95.0" r="4.9" fill="#59a14f"/><circle cx="141.6" cy="76.7" r="4.9" fill="#e15759"/><circle cx="117.8" cy="121.6" r="4.9" fill="#4e79a7"/><circle cx="121.7" cy="32.0" r="4.9" fill="#b07aa1"/><circle cx="70.6" cy="113.3" r="4.9" fill="#4e79a7"/><circle cx="120.3" cy="50.7" r="4.9" fill="#4e79a7"/><circle cx="82.6" cy="91.9" r="4.9" fill="#76b7b2"/><circle cx="66.8" cy="55.7" r="4.9" fill="#4e79a7"/><circle cx="52.2" cy="114.0" r="4.9" fill="#4e79a7"/></svg>